{
    "asset" : {
        "generator" : "Khronos glTF Blender I/O v1.3.48",
        "version" : "2.0"
    },
    "scene" : 0,
    "scenes" : [
        {
            "name" : "Scene",
            "nodes" : [
                21,
                22,
                23,
                24,
                25,
                26,
                27
            ]
        }
    ],
    "nodes" : [
        {
            "name" : "Bone.003",
            "rotation" : [
                -0.695209264755249,
                -0.004999789875000715,
                -0.005169783253222704,
                0.7187714576721191
            ],
            "scale" : [
                1,
                0.9999999403953552,
                1
            ],
            "translation" : [
                0.449640154838562,
                0.3071882426738739,
                -0.5851644277572632
            ]
        },
        {
            "name" : "Bone.002",
            "rotation" : [
                0.07928487658500671,
                2.5044691938092e-05,
                -0.0003154132573399693,
                0.9968519806861877
            ],
            "scale" : [
                0.9999999403953552,
                1,
                1
            ],
            "translation" : [
                -5.314301176895242e-08,
                0.6078474521636963,
                1.7113052308559418e-08
            ]
        },
        {
            "children" : [
                1
            ],
            "name" : "Bone.001",
            "rotation" : [
                -0.06245458871126175,
                0.00039767188718542457,
                -0.004119175486266613,
                0.9980392456054688
            ],
            "scale" : [
                0.9999998807907104,
                0.9999999403953552,
                1
            ],
            "translation" : [
                -9.476303119981822e-08,
                1.1602457761764526,
                2.3391041992226747e-08
            ]
        },
        {
            "children" : [
                2
            ],
            "name" : "Bone",
            "rotation" : [
                -0.71892911195755,
                -0.003086127107962966,
                -0.003192112548276782,
                0.6950692534446716
            ],
            "scale" : [
                0.9999999403953552,
                1,
                0.9999999403953552
            ],
            "translation" : [
                0.4496399760246277,
                0.020991411060094833,
                -0.5851643681526184
            ]
        },
        {
            "name" : "Bone.007",
            "rotation" : [
                -0.7652255892753601,
                -0.004127503372728825,
                -0.00525387329980731,
                0.6437276005744934
            ],
            "scale" : [
                1,
                1.0000001192092896,
                1.0000001192092896
            ],
            "translation" : [
                -0.01770124025642872,
                0.3071882426738739,
                -0.5851645469665527
            ]
        },
        {
            "name" : "Bone.006",
            "rotation" : [
                -0.027683256193995476,
                -4.177923619863577e-05,
                -0.00029200862627476454,
                0.9996167421340942
            ],
            "scale" : [
                1,
                0.9999999403953552,
                0.9999998807907104
            ],
            "translation" : [
                -1.9499251102672588e-09,
                0.6532339453697205,
                -2.6343519365923385e-08
            ]
        },
        {
            "children" : [
                5
            ],
            "name" : "Bone.005",
            "rotation" : [
                -0.15895786881446838,
                0.0008125508902594447,
                -0.003771913703531027,
                0.9872779250144958
            ],
            "scale" : [
                0.9999998807907104,
                0.9999999403953552,
                1.000000238418579
            ],
            "translation" : [
                -1.951434569491539e-09,
                1.24894118309021,
                7.598828233312815e-10
            ]
        },
        {
            "children" : [
                6
            ],
            "name" : "Bone.004",
            "rotation" : [
                -0.7849155068397522,
                -0.002547559328377247,
                -0.0032439485657960176,
                0.61958909034729
            ],
            "scale" : [
                1,
                1,
                0.9999998807907104
            ],
            "translation" : [
                -0.01770123839378357,
                0.020991414785385132,
                -0.5851646065711975
            ]
        },
        {
            "name" : "Bone.011",
            "rotation" : [
                -0.7919785380363464,
                -0.008563172072172165,
                -0.01191024761646986,
                0.6103727221488953
            ],
            "scale" : [
                1,
                1,
                0.9999999403953552
            ],
            "translation" : [
                -0.49728289246559143,
                0.24106630682945251,
                -0.5923749804496765
            ]
        },
        {
            "name" : "Bone.010",
            "rotation" : [
                -0.06634028255939484,
                0.0012427103938534856,
                -0.00022897685994394124,
                0.9977962970733643
            ],
            "scale" : [
                1,
                0.9999999403953552,
                1
            ],
            "translation" : [
                3.905734047293663e-08,
                0.6108062863349915,
                4.959292709827423e-08
            ]
        },
        {
            "children" : [
                9
            ],
            "name" : "Bone.009",
            "rotation" : [
                -0.2060779482126236,
                5.8376761444378644e-05,
                -0.004044420085847378,
                0.9785272479057312
            ],
            "scale" : [
                0.9999999403953552,
                0.9999999403953552,
                0.9999997615814209
            ],
            "translation" : [
                3.0089370994801357e-08,
                1.166031837463379,
                1.9613144885965994e-08
            ]
        },
        {
            "children" : [
                10
            ],
            "name" : "Bone.008",
            "rotation" : [
                -0.811935544013977,
                -0.007165378890931606,
                -0.009537548758089542,
                0.5836254358291626
            ],
            "scale" : [
                1.000000238418579,
                1.0000001192092896,
                1.0000001192092896
            ],
            "translation" : [
                -0.4972829520702362,
                -0.045130450278520584,
                -0.5923748016357422
            ]
        },
        {
            "name" : "Bone.015",
            "rotation" : [
                -0.8240372538566589,
                -0.009298191405832767,
                -0.014558374881744385,
                0.5662723183631897
            ],
            "scale" : [
                0.9999999403953552,
                0.9999998211860657,
                1
            ],
            "translation" : [
                -0.9031283855438232,
                0.18975740671157837,
                -0.5129863619804382
            ]
        },
        {
            "name" : "Bone.014",
            "rotation" : [
                -0.10990502685308456,
                0.0017610634677112103,
                -0.00017188233323395252,
                0.993940532207489
            ],
            "scale" : [
                1,
                1.0000001192092896,
                1
            ],
            "translation" : [
                1.4797861602744433e-08,
                0.5210844874382019,
                -5.1550067325933924e-08
            ]
        },
        {
            "children" : [
                13
            ],
            "name" : "Bone.013",
            "rotation" : [
                -0.27232861518859863,
                0.00017168966587632895,
                -0.004735973663628101,
                0.9621927738189697
            ],
            "scale" : [
                1,
                1.0000001192092896,
                1
            ],
            "translation" : [
                -5.411416381662093e-08,
                0.9901504516601562,
                -3.676600712765321e-08
            ]
        },
        {
            "children" : [
                14
            ],
            "name" : "Bone.012",
            "rotation" : [
                -0.8456977605819702,
                -0.007771701086312532,
                -0.011703486554324627,
                0.533477246761322
            ],
            "scale" : [
                1.0000001192092896,
                0.9999998807907104,
                0.9999999403953552
            ],
            "translation" : [
                -0.9031285047531128,
                -0.09643931686878204,
                -0.5129862427711487
            ]
        },
        {
            "name" : "Bone.019",
            "rotation" : [
                -0.5358334183692932,
                0.18494664132595062,
                -0.5972931981086731,
                0.5673782825469971
            ],
            "scale" : [
                1,
                0.9999998211860657,
                0.9999998807907104
            ],
            "translation" : [
                0.8318513035774231,
                0.23753736913204193,
                1.053204894065857
            ]
        },
        {
            "name" : "Bone.018",
            "rotation" : [
                0.00835058931261301,
                0.0207781121134758,
                0.009505326859652996,
                0.9997040629386902
            ],
            "translation" : [
                7.823337000445463e-08,
                0.6108061075210571,
                1.0652074422523583e-07
            ]
        },
        {
            "children" : [
                17
            ],
            "name" : "Bone.017",
            "rotation" : [
                -0.18348537385463715,
                -0.02684898115694523,
                0.023903796449303627,
                0.9823649525642395
            ],
            "scale" : [
                0.9999997615814209,
                0.9999997615814209,
                0.9999998807907104
            ],
            "translation" : [
                3.788587221720263e-08,
                1.13044273853302,
                8.858108913045726e-09
            ]
        },
        {
            "children" : [
                18
            ],
            "name" : "Bone.016",
            "rotation" : [
                -0.5303363800048828,
                0.15287111699581146,
                -0.6218366026878357,
                0.5556015372276306
            ],
            "scale" : [
                1,
                0.9999995231628418,
                0.9999998807907104
            ],
            "translation" : [
                0.5236104726791382,
                0.09302245825529099,
                0.823284924030304
            ]
        },
        {
            "mesh" : 0,
            "name" : "geo-hand",
            "skin" : 0
        },
        {
            "children" : [
                20,
                0,
                3,
                4,
                7,
                8,
                11,
                12,
                15,
                16,
                19
            ],
            "name" : "Armature",
            "rotation" : [
                0.7163301706314087,
                0,
                0,
                0.6977614760398865
            ],
            "scale" : [
                2.8255393505096436,
                3.1405763626098633,
                3.148207902908325
            ]
        },
        {
            "name" : "bone_shape_finger"
        },
        {
            "name" : "bone_shape_finger.001"
        },
        {
            "mesh" : 1,
            "name" : "bone_shape_knuckle",
            "rotation" : [
                -0.06605390459299088,
                0.02154260315001011,
                0.006966783199459314,
                0.9975592494010925
            ],
            "translation" : [
                0.010716158896684647,
                -0.026805905625224113,
                0.0005378019413910806
            ]
        },
        {
            "mesh" : 2,
            "name" : "Ethereum_logo_@akimovcg",
            "rotation" : [
                0.4912407696247101,
                -0.5096276998519897,
                0.5086278319358826,
                0.49016308784484863
            ],
            "scale" : [
                -0.006773756351321936,
                -0.009295506402850151,
                -0.006256197579205036
            ],
            "translation" : [
                1.2932411432266235,
                11.687399864196777,
                0.39490625262260437
            ]
        },
        {
            "name" : "Point.001",
            "rotation" : [
                -0.5286552906036377,
                -0.24490582942962646,
                0.13853001594543457,
                -0.8008460402488708
            ],
            "scale" : [
                7.397170543670654,
                7.397170543670654,
                8.584270477294922
            ],
            "translation" : [
                21.14617919921875,
                17.24866485595703,
                28.809274673461914
            ]
        },
        {
            "name" : "Point.002",
            "rotation" : [
                -0.877578616142273,
                -0.1031438410282135,
                0.14428909122943878,
                0.44541868567466736
            ],
            "scale" : [
                7.397170543670654,
                7.397170543670654,
                8.584270477294922
            ],
            "translation" : [
                3.3298354148864746,
                -18.937339782714844,
                -33.88801574707031
            ]
        }
    ],
    "materials" : [
        {
            "doubleSided" : true,
            "emissiveFactor" : [
                0,
                0,
                0
            ],
            "name" : "Material.001",
            "pbrMetallicRoughness" : {
                "baseColorFactor" : [
                    0,
                    0,
                    0,
                    1
                ],
                "metallicFactor" : 0,
                "roughnessFactor" : 0.5
            }
        },
        {
            "doubleSided" : true,
            "emissiveFactor" : [
                0,
                0,
                0
            ],
            "name" : "default.001",
            "pbrMetallicRoughness" : {
                "baseColorFactor" : [
                    1,
                    1,
                    1,
                    1
                ],
                "metallicFactor" : 0,
                "roughnessFactor" : 1
            }
        }
    ],
    "meshes" : [
        {
            "name" : "Cube.001",
            "primitives" : [
                {
                    "attributes" : {
                        "POSITION" : 0,
                        "NORMAL" : 1,
                        "JOINTS_0" : 2,
                        "WEIGHTS_0" : 3
                    },
                    "indices" : 4,
                    "material" : 0
                }
            ]
        },
        {
            "name" : "Mesh.005",
            "primitives" : [
                {
                    "attributes" : {
                        "POSITION" : 6,
                        "NORMAL" : 7
                    },
                    "indices" : 8
                }
            ]
        },
        {
            "name" : "Ethereum_logo_@akimovcg.001",
            "primitives" : [
                {
                    "attributes" : {
                        "POSITION" : 9,
                        "NORMAL" : 10,
                        "TEXCOORD_0" : 11
                    },
                    "indices" : 12,
                    "material" : 1
                }
            ]
        }
    ],
    "skins" : [
        {
            "inverseBindMatrices" : 5,
            "joints" : [
                0,
                3,
                2,
                1,
                4,
                7,
                6,
                5,
                8,
                11,
                10,
                9,
                12,
                15,
                14,
                13,
                16,
                19,
                18,
                17
            ],
            "name" : "Armature"
        }
    ],
    "accessors" : [
        {
            "bufferView" : 0,
            "componentType" : 5126,
            "count" : 1001,
            "max" : [
                5.415162563323975,
                9.094520568847656,
                1.7800333499908447
            ],
            "min" : [
                -3.1284704208374023,
                -6.172970771789551,
                -2.0533924102783203
            ],
            "type" : "VEC3"
        },
        {
            "bufferView" : 1,
            "componentType" : 5126,
            "count" : 1001,
            "type" : "VEC3"
        },
        {
            "bufferView" : 2,
            "componentType" : 5123,
            "count" : 1001,
            "type" : "VEC4"
        },
        {
            "bufferView" : 3,
            "componentType" : 5126,
            "count" : 1001,
            "type" : "VEC4"
        },
        {
            "bufferView" : 4,
            "componentType" : 5123,
            "count" : 5973,
            "type" : "SCALAR"
        },
        {
            "bufferView" : 5,
            "componentType" : 5126,
            "count" : 20,
            "type" : "MAT4"
        },
        {
            "bufferView" : 6,
            "componentType" : 5126,
            "count" : 68,
            "max" : [
                7.226709897167893e-09,
                0.12124407291412354,
                0.12124407291412354
            ],
            "min" : [
                -1.3783855242095744e-14,
                -1.9512117432896048e-07,
                -0.3591177463531494
            ],
            "type" : "VEC3"
        },
        {
            "bufferView" : 7,
            "componentType" : 5126,
            "count" : 68,
            "type" : "VEC3"
        },
        {
            "bufferView" : 8,
            "componentType" : 5123,
            "count" : 102,
            "type" : "SCALAR"
        },
        {
            "bufferView" : 9,
            "componentType" : 5126,
            "count" : 1512,
            "max" : [
                244.1079864501953,
                155.44158935546875,
                398.92047119140625
            ],
            "min" : [
                -244.1079864501953,
                -155.44158935546875,
                -393.6180419921875
            ],
            "type" : "VEC3"
        },
        {
            "bufferView" : 10,
            "componentType" : 5126,
            "count" : 1512,
            "type" : "VEC3"
        },
        {
            "bufferView" : 11,
            "componentType" : 5126,
            "count" : 1512,
            "type" : "VEC2"
        },
        {
            "bufferView" : 12,
            "componentType" : 5123,
            "count" : 2244,
            "type" : "SCALAR"
        }
    ],
    "bufferViews" : [
        {
            "buffer" : 0,
            "byteLength" : 12012,
            "byteOffset" : 0
        },
        {
            "buffer" : 0,
            "byteLength" : 12012,
            "byteOffset" : 12012
        },
        {
            "buffer" : 0,
            "byteLength" : 8008,
            "byteOffset" : 24024
        },
        {
            "buffer" : 0,
            "byteLength" : 16016,
            "byteOffset" : 32032
        },
        {
            "buffer" : 0,
            "byteLength" : 11946,
            "byteOffset" : 48048
        },
        {
            "buffer" : 0,
            "byteLength" : 1280,
            "byteOffset" : 59996
        },
        {
            "buffer" : 0,
            "byteLength" : 816,
            "byteOffset" : 61276
        },
        {
            "buffer" : 0,
            "byteLength" : 816,
            "byteOffset" : 62092
        },
        {
            "buffer" : 0,
            "byteLength" : 204,
            "byteOffset" : 62908
        },
        {
            "buffer" : 0,
            "byteLength" : 18144,
            "byteOffset" : 63112
        },
        {
            "buffer" : 0,
            "byteLength" : 18144,
            "byteOffset" : 81256
        },
        {
            "buffer" : 0,
            "byteLength" : 12096,
            "byteOffset" : 99400
        },
        {
            "buffer" : 0,
            "byteLength" : 4488,
            "byteOffset" : 111496
        }
    ],
    "buffers" : [
        {
            "byteLength" : 115984,
            "uri" : "data:application/octet-stream;base64,"
        }
    ]
}
